<?xml version="1.0" encoding="UTF-8"?>
<svg version="1.1" viewBox="0 0 2048 1053" width="696" height="358" xmlns="http://www.w3.org/2000/svg">
<path transform="translate(490,26)" d="m0 0 6 2 24 11 30 15 18 8 8 3 10-10 9-7 13-8 17-8 13-4 11-2h30l14 2 17 5 16 8 10 6 10 8 13 13 11 16 10 21 4 13 3 24-1 20-6 24-11 23-8 11-13 13-11 10-19 11-13 5-4 3-1 5-8 16-22 56-14 40-9 30-8 29-9 39-6 37-3 30-1 26 2 30 4 24 5 19 9 21 9 14 11 14 26 26 11 8 15 10 29 15 14 6 22 8 25 7 27 6 26 4 29 3 17 1 36 1-8 16-9 16-15 28-14 26-9 16-13 25-8 14-12 22-10 19-13 23-15 28-6 10-6-5-12-18-10-19-6-20-2-7-1-8v-28l3-17 4-13 6-15 6-11h-9l-33-4-31-5-36-8-30-9-27-10-30-15-18-12-9-7-10-9-9-8-7-8-8-10-10-16-9-17-7-19-1-7-17 5-36 12-24 12-13 8-12 8-13 10-13 11-8 7-18 18-10 13-7 8-6 8-8 11-9 14-10 16-12 21-11 21-10 23-15 39-11 36h-3l-9-7-12-9-7-6-8-6-5-4-9-7-13-10-10-8-13-10-20-16-9-7-12-9-9-7-11-9-9-7-26-20-10-8-13-10-10-8-9-7v-2l26-8 23-5 18-2h30l23 3 17 4 22 8 17 8 6 5 3-9 11-29 12-29 11-25 9-19 11-20 10-17 13-19 14-19 11-12 7-8 7-7 11-9 17-13 12-7 17-9 33-11 4-1-331-1-1-1v-361l1-1 362 1v174h2l2-5 10-15 9-12 10-13 7-7 9-11 15-15 11-9 11-10 16-12 11-8 24-16 21-12v-2l-11-8-10-10-10-13-6-10-7-15-6-22-9-3-28-8 2-4 20-18 16-16 10-23v-3l-17-8-11-7-12-8-10-9-7-7-7-11-4-10zm93 87-8 5-5 6-2 7 1 10 6 9 7 4 9 1 9-3 7-6 2-5 1-11-4-9-7-6-6-2zm-333 258-9 3-5 6-3 9v17l1 9-26-10-18-5-10-2-15-1-10 2-6 4-4 8v8l4 6 5 4 16 6 28 7 13 3-25-2h-31l-14 2-8 3-7 6-1 9 4 8 12 6 11 3 32 4 6 1 2-1v2h-17l-12 4-6 4-4 5-1 7 3 6 8 6 13 4 19 2h10l19-2 26-5 21-7 6-3 39 4 27 2 27 1h21l33-2 26-3 25-5 30-9 29-14 20-12 12-8 1-4-20-20-7-8-11-12-14-15-15-15-5-6-4 2-12 11-16 11-14 8-28 11-23 7-28 6-27 4-33 3-23 1-6-36-4-15-4-9-4-6-8-7z" fill="#FC5C26"/>
<path transform="translate(1522,152)" d="m0 0h10l21 3 14 5 13 7 11 9 10 11 4 7 12-15 8-7 15-10 15-6 13-3 9-1h10l19 2 16 5 14 7 15 12 11 14 8 17 4 16 2 21v134l-1 1h-56l-1-2v-106l-1-30-4-14-6-10-7-7-14-7-10-2h-15l-16 4-11 7-8 10-5 12-2 10-1 134-1 1h-56l-1-4-1-133-4-15-6-10-7-7-14-7-10-2h-15l-16 4-10 6-7 7-6 12-3 11-1 11v126l-1 1h-57v-225l56-1 1 1 1 25 10-9 9-7 14-7 12-4z" fill="#010000"/>
<path transform="translate(937,97)" d="m0 0h113l20 2 19 5 16 8 10 7 10 9 9 13 6 13 4 18v25l-4 17-5 12-7 11-9 10-14 10-14 7-17 5-12 2-11 1h-57v108l-1 1h-56l-1-4v-279zm57 46v83h53l11-2 12-5 6-5 6-9 3-10v-21l-3-10-6-8-8-7-11-4-16-2z" fill="#030100"/>
<path transform="translate(1895,152)" d="m0 0h26l18 3 16 5 17 9 12 9 12 12 10 15 7 16 4 14 2 13v32l-1 5-8 1h-155l-2-1 3 15 5 12 7 9 8 7 12 6 8 2h21l13-4 8-5 6-5 8-12h61l1 2-9 20-8 12-11 12-13 11-17 9-14 5-16 3-13 1h-12l-18-2-15-4-12-5-13-7-10-8-10-9-9-12-9-16-7-21-3-17v-31l4-21 5-15 8-16 9-12 9-10 12-9 14-8 13-5 18-4zm3 47-12 3-11 6-10 9-8 14-4 13v3h107v-8l-4-12-6-10-10-9-12-6-12-3z" fill="#020000"/>
<path transform="translate(1286,152)" d="m0 0h5v60l-21 1-14 2-13 5-9 7-6 10-4 13-1 9-1 122h-57l-1-225 57-1 1 1 1 33 11-14 12-10 15-8 16-4z"/>
<path transform="translate(1309,156)" d="m0 0h57v225h-57l-1-19v-61z" fill="#010000"/>
<path transform="translate(950,467)" d="m0 0h30l3 7 19 76 3 13h2l16-26 19-32 11-18 9-15 4-5h29l1 2-19 107-4 23-1 1h-26l-1-2 4-20 9-51 2-10-10 16-14 24-13 22-13 21h-21l-10-41-9-38-1-3-4 20-10 57-1 5h-27l1-11 13-72z" fill="#020000"/>
<path transform="translate(1461,467)" d="m0 0h28l23 47 11 23 9 19 2 1v-8l13-74 2-8h27l-6 36-17 96-1 1h-27l-16-32-11-23-16-33-1-1-8 46-7 40-1 3h-27l1-9 10-57 8-45z" fill="#020000"/>
<path transform="translate(1655,466)" d="m0 0h22l12 3 13 7 9 9 7 14 2 7-1 1h-30l-8-10-10-5-5-1h-11l-12 3-8 4-10 9-6 9-4 9-3 15v8l3 12 4 6 8 6 7 3 5 1h14l9-2 11-6 5-4 7-10 4-8-42 1-4-1 4-19 3-1h69l-1 11-4 16-7 13-11 13-10 8-14 8-16 5-7 1h-19l-12-3-12-6-10-9-6-9-5-12-2-18 3-17 4-12 9-16 11-12 7-6 13-8 14-5z" fill="#020000"/>
<path transform="translate(1169,466)" d="m0 0h26l11 3 12 6 10 9 6 9 4 9 2 10v22l-4 17-7 14-10 13-9 8-11 7-12 5-13 3-15 1-14-2-13-5-10-7-9-10-6-13-2-7-1-8v-13l3-16 5-13 9-13 9-10 10-8 14-7zm4 24-11 3-9 5-9 8-6 9-5 13-1 6v17l4 11 5 7 10 6 10 2h8l11-2 12-6 7-6 7-10 5-12 2-10v-13l-2-9-6-10-9-6-11-3z" fill="#020000"/>
<path transform="translate(1262,467)" d="m0 0h29l6 35 11 66 1 3 12-22 10-20 10-18 8-16 14-27 1-1h28l-2 5-14 27-13 23-17 32-24 44-2 2h-33l-15-79-10-52z" fill="#020000"/>
<path transform="translate(1330,62)" d="m0 0h15l11 4 9 7 6 10 2 8v9l-3 10-6 8-7 6-10 4-12 1-10-2-8-4-7-6-5-8-2-6v-15l4-10 7-8 9-6z" fill="#020000"/>
<path transform="translate(1409,467)" d="m0 0h26l-1 12-21 119-1 2h-27l2-13 20-112z" fill="#020000"/>
</svg>
