<?xml version="1.0" encoding="UTF-8"?>
<svg version="1.1" viewBox="0 0 2048 1032" width="704" height="355" xmlns="http://www.w3.org/2000/svg">
<path transform="translate(489,9)" d="m0 0 5 1 20 9 40 20 20 9 4-1 12-11 12-9 16-8 11-5 20-5h33l17 3 15 5 16 8 11 7 10 9 12 12 10 15 9 19 5 15 3 23-1 21-5 22-7 17-9 15-11 13-8 8-13 10-16 9-13 5-3 2-4 10-8 18-13 32-11 30-10 28-15 51-10 42-5 27-4 30-2 25v36l3 27 5 23 5 15 9 19 10 14 9 11 25 25 9 6 5 4 16 10 16 9 19 9 28 10 25 7 27 6 34 5 41 3 33 1-2 5-11 21-10 19-16 29-9 17-9 16-12 23-9 16-14 26-10 19-10 18-13 24-7 12h-3l-10-13-8-13-8-16-5-15-3-12-2-17 1-21 4-21 8-20 7-14-18-1-30-4-25-4-33-7-34-10-24-9-25-12-14-8-11-7-12-9-15-14-10-10-10-13-12-20-9-19-6-18-8 1-36 12-15 6-21 11-19 12-13 10-11 9-14 12-15 15-11 14-8 9-7 9-8 11-9 14-11 17-11 20-10 19-14 32-8 21-12 36-4 13h-4l-9-7-12-9-7-6-9-7-14-11-13-10-14-11-9-7-13-10-7-6-9-7-12-9-20-16-17-13-14-11-13-10-10-8-14-11-9-7 1-3 29-9 20-4 18-2h27l25 3 17 4 17 6 18 8 8 5 3 1 10-25 11-28 8-19 8-18 12-25 13-23 6-10 10-15 10-14 11-14 10-11 1-2h2l1-3h2l1-3 8-7 12-10 16-11 15-9 13-6 22-8 14-4h-327l-9-1v-367h367l1 175 4-4 9-14 15-20 7-8 10-11 7-8 15-15 11-9 11-10 16-12 10-7 26-17 15-9 3-1v-2l-11-8-10-10-11-14-9-16-6-16-3-12v-4l-17-4-21-6 2-4 16-15 21-21 6-14 4-10-5-3-21-11-11-8-6-4-13-12-7-10-5-10zm96 88-7 3-7 8-2 5v11l4 8 6 5 8 3 9-1 8-4 4-5 3-9v-7l-5-10-5-4-9-3zm-341 262-8 4-5 8-1 5v19l1 9-24-10-21-6-9-2-14-1-13 2-6 5-3 7v8l4 6 5 4 12 5 23 6 21 5h3v2l-9-2-9-1h-46l-10 2-10 5-4 5v9l4 7 12 6 11 3 33 4h2v2h-11l-14 4-7 6-3 6 1 7 6 7 8 4 13 3 7 1h26l23-3 23-6 16-6 2-1h9l38 4 33 2h46l30-2 22-3 24-5 24-7 13-5 26-13 13-8 17-11-1-4-19-19-7-8-12-13-16-17-19-19-4 2-9 9-15 11-16 9-11 5-21 8-24 7-29 6-21 3-29 3-31 1-5-33-5-19-7-14-8-7-3-1z" fill="#FB5B26"/>
<path transform="translate(1532,137)" d="m0 0h15l19 3 16 6 13 8 10 9 8 9 4 7 4-4 7-9 8-8 13-9 15-7 15-4 10-1h14l17 2 17 5 16 9 13 11 10 13 7 14 4 14 2 11 1 12v140l-1 1h-57l-1-132-2-14-4-11-6-9-8-7-10-5-8-2-14-1-14 2-12 5-9 7-7 11-4 11-2 16-1 128-1 1h-56l-1-1-1-134-3-16-6-12-9-9-12-6-16-3-16 1-12 4-11 7-7 9-5 11-2 8-1 15-1 125-1 1h-57v-228l2-1h56l1 26 10-10 15-10 19-7z" fill="#FEFEFE"/>
<path transform="translate(1908,137)" d="m0 0h31l17 3 18 6 15 8 13 10 9 9 10 14 8 17 5 17 2 11v37l-2 3h-165l2 14 5 12 8 11 11 8 12 5 5 1h19l12-3 10-5 7-6 8-11 1-1h61l-2 9-8 16-10 14-11 11-11 8-14 8-18 6-16 3h-33l-20-4-15-6-13-7-12-9-12-12-9-13-8-16-5-15-3-15-1-8v-24l3-20 5-17 8-17 9-13 11-12 10-8 14-8 12-5 14-4zm8 47-14 3-10 5-12 11-6 10-4 10-1 10h107v-9l-4-12-7-11-10-8-12-6-7-2-8-1z" fill="#FEFEFE"/>
<path transform="translate(941,81)" d="m0 0h121l20 3 16 5 14 7 12 9 11 11 8 13 6 16 2 10v29l-4 16-8 17-8 10-10 10-14 9-14 6-17 4-14 2-40 1h-22l-1 110h-58zm58 47v83l1 1h17l41-1 13-4 9-6 7-8 4-11 1-7v-10l-3-14-6-10-7-6-12-5-12-2z" fill="#FEFEFE"/>
<path transform="translate(1291,137)" d="m0 0h9l1 60-2 1-26 1-16 4-8 4-8 7-7 14-2 9-1 9-1 122-1 1h-57v-229h58l1 33 12-14 14-11 12-6 9-3z" fill="#FEFEFE"/>
<path transform="translate(1319,140)" d="m0 0h56l1 1v227l-1 1h-57l-1-177 1-51z" fill="#FEFEFE"/>
<path transform="translate(955,456)" d="m0 0h31l3 9 22 88 2 1 2-5 12-20 17-28 19-32 8-13h31l-1 13-10 56-10 57-3 9h-26v-7l13-73v-3l-15 25-15 26-13 22-7 10h-20l-4-13-16-67-1-3-4 21-10 57-2 5h-26l-1-3 13-73 9-50z" fill="#FEFEFE"/>
<path transform="translate(1562,455)" d="m0 0 26 1-6 36-16 91-2 7-1 1h-25l-3-3-12-24-11-23-15-31-4-9-5 24-10 56-2 9-1 1h-26l-1-3 9-49 11-63 4-20h28l19 38 13 28 11 22v2h2l1-11 14-78z" fill="#FEFEFE"/>
<path transform="translate(1676,454)" d="m0 0 17 1 13 4 11 7 7 7 6 10 3 9-1 5h-30l-7-10-8-5-10-2h-8l-13 3-11 6-10 10-7 14-3 12v17l4 11 4 5 11 6 9 2h12l12-3 10-6 9-9 5-11-45-1 3-19 1-1h73l-2 14-3 12-7 13-8 10-9 9-14 9-12 5-12 3-17 1-14-2-12-5-9-6-8-8-8-16-2-7v-24l5-17 8-16 9-11 7-7 15-10 15-6 10-2z" fill="#FEFEFE"/>
<path transform="translate(1182,454)" d="m0 0h15l16 3 12 6 10 9 6 8 5 11 2 9 1 12-2 18-5 16-7 12-8 10-10 9-11 7-13 5-15 3h-17l-14-3-14-7-9-8-7-11-5-14-1-5v-20l3-14 5-13 7-11 8-10 14-11 12-6 9-3zm0 25-12 3-8 4-10 9-7 10-5 13-1 6v16l3 10 6 8 8 6 13 3 14-1 11-4 10-7 8-9 6-13 2-7 1-15-2-12-6-10-8-6-8-3-6-1z" fill="#FEFEFE"/>
<path transform="translate(1271,456)" d="m0 0h29l3 17 14 84 1 3 8-14 16-31 10-18 8-16 13-25h29l-2 6-13 24-12 22-13 24-10 18-15 28-8 13h-33l-5-24-19-101z" fill="#FEFEFE"/>
<path transform="translate(1337,46)" d="m0 0h20l9 4 8 6 6 9 3 12-1 11-6 12-7 7-10 5-4 1h-16l-11-4-10-9-6-12v-17l4-10 7-8 8-5z" fill="#FEFEFE"/>
<path transform="translate(1419,456)" d="m0 0h27l-2 15-21 119-1 1h-26l-1-4 21-117 2-12z" fill="#FEFEFE"/>
</svg>
