<?xml version="1.0" encoding="UTF-8"?>
<svg version="1.1" viewBox="0 0 2048 1044" width="700" height="357" xmlns="http://www.w3.org/2000/svg">
<path transform="translate(649,20)" d="m0 0h21l21 3 18 6 16 8 14 10 10 9 9 10 9 14 8 16 6 18 3 23v10l-2 16-5 20-11 23-8 11-13 14-14 11-14 8-14 6-5 3-10 23-16 40-11 30-12 36-12 41-9 37-5 27-4 28-2 19-1 19v25l3 30 5 23 5 15 7 16 10 15 13 16 20 20 12 9 18 12 18 10 23 11 35 12 38 9 40 6 43 3 29 1-2 6-9 17-9 16-11 21-24 44-10 19-10 18-12 22-10 19-10 18-10 19-13 23-2 4-3-1-11-15-9-15-7-15-6-21-2-13v-26l3-17 5-16 7-16 4-8-17-1-42-6-32-6-28-7-23-7-28-11-26-13-14-9-14-10-13-12-7-6-7-8-10-13-12-20-9-19-6-18-11 3-40 13-24 12-18 11-14 10-9 7-13 11-8 7-16 16-11 14-7 8-6 8-11 15-15 24-14 24-14 28-10 24-11 29-13 40-2 1-12-9-30-24-13-10-18-14-17-13-42-33-10-8-13-10-14-11-26-20-11-9-10-8-9-7v-4l28-9 20-4 16-2h32l23 3 20 5 28 11 9 5 5 3 5-12 7-18 11-27 7-16 10-23 13-26 9-15 7-12 10-15 8-11 9-12 9-10 7-8 12-12 14-11 12-9 14-8 16-8 21-8 15-4-335-1-1-3v-364h367l1 1v130l1 44 12-18 9-12 10-13 12-13 7-8 16-16 11-9 10-9 17-13 19-13 19-12 15-9h2l-5-5-10-9-9-9-9-12-8-14-5-12-5-19v-3l-10-2-27-7 1-4 16-15 21-21 9-21 1-5-6-2-19-10-11-8-6-4-10-9-9-10-7-15-1-6 9 3 16 7 38 19 22 10 5-3 10-9 12-9 12-7 20-8zm-72 89-9 6-5 10v10l4 8 7 6 6 2h8l8-3 7-8 2-6v-9l-5-10-8-5-3-1zm-334 261-8 2-6 4-4 8-1 5v17l2 9-32-12-20-5-7-1h-16l-9 3-5 6-2 5v7l4 7 8 5 10 4 27 7 16 4-28-2h-19l-16 1-13 4-6 4-3 5v7l3 6 5 4 12 5 14 3 24 3h9v2h-16l-13 4-8 6-3 7 3 9 8 6 13 4 13 2h23l23-3 24-6 20-8 36 4 29 2 28 1h30l31-2 22-3 24-5 24-7 15-6 24-12 21-13 9-7-2-4-9-10-12-12-9-11-20-20-1-2h-2l-2-4-16-16-4 1-14 13-18 12-16 8-23 9-23 7-34 7-21 3-18 2-40 2-3-24-5-24-5-13-7-9-6-4z" fill="#FEFEFE"/>
<path transform="translate(1521,149)" d="m0 0h24l16 3 14 5 12 7 13 11 8 10 3 5h2l9-12 9-9 15-10 14-6 11-3 6-1h26l13 2 16 5 14 8 10 8 7 7 9 13 6 14 4 15 2 16 1 142-1 1-38 1h-18l-2-1-1-137-3-14-6-11-7-8-10-6-9-3-7-1h-16l-15 4-11 7-8 10-5 11-2 9-1 14v125l-55 1-4-2v-117l-1-20-3-13-5-10-8-9-10-6-9-3-6-1h-17l-15 4-11 7-7 8-6 13-2 8-1 13-1 127-28 1h-29l-1-4v-224l1-1h57v26l16-14 14-8 14-5z" fill="#030303"/>
<path transform="translate(1908,148)" d="m0 0h20l20 3 16 5 16 8 13 9 8 7 11 14 9 16 6 17 3 16 1 13v13l-1 13-3 2h-164l2 13 5 12 6 9 7 7 10 6 9 3 6 1h16l11-2 12-6 8-7 7-11h63l-6 16-9 15-12 14-13 11-16 9-13 5-18 4-11 1h-21l-19-3-18-6-15-8-11-8-7-6-7-8-9-13-8-16-5-15-3-16-1-14v-10l2-20 4-17 6-15 9-16 11-13 7-7 13-9 16-8 16-5zm-2 48-13 4-10 6-9 9-7 12-5 16v2h108l1-4-3-14-6-11-9-9-12-7-9-3-6-1z" fill="#030303"/>
<path transform="translate(936,93)" d="m0 0h123l18 3 16 5 17 9 11 9 9 10 8 14 4 10 3 14 1 18-2 16-5 16-8 15-11 12-8 7-13 8-17 6-13 3-18 2-57 1v109l-51 1-7-1-1-5zm58 46-1 1v83l2 1 56-1 12-3 10-6 7-7 5-11 1-6v-17l-2-9-4-8-6-7-10-6-12-3-23-1z" fill="#010101"/>
<path transform="translate(1291,148)" d="m0 0h3l1 20v40l-1 1-30 2-14 4-10 6-7 8-5 12-2 8-1 12-1 119-55 1-3-1v-228h58l1 33 9-10 5-6 12-9 14-7 11-3z" fill="#040404"/>
<path transform="translate(1312,152)" d="m0 0h58v228l-37 1h-21z" fill="#010101"/>
<path transform="translate(949,468)" d="m0 0h32l16 64 8 33 2 1 2-5 13-21 42-70 2-2h31l-5 29-18 103-1 2-24 1-3-1 1-10 13-72v-2l-17 29-29 49-4 6-7 1h-13l-3-7-13-54-5-20-1-3-3 16-11 63-1 4-4 1-23-1 1-11 19-107z" fill="#040404"/>
<path transform="translate(1487,467)" d="m0 0h6l2 1 13 28 23 47 7 14 1-1 6-36 9-51 2-2 26 1-6 37-13 73-4 23-5 2h-22l-5-8-12-24-11-23-16-34-1-2-5 25-11 62-1 3h-28l13-72 11-62z" fill="#050505"/>
<path transform="translate(1666,466)" d="m0 0h14l11 2 11 4 9 6 8 8 7 14 1 8h-31l-6-8-6-5-10-3h-13l-12 3-10 6-5 5-6 7-6 12-3 13v15l4 11 6 7 9 5 9 2h12l12-3 12-7 7-8 6-11-45-1-1-2 3-16 1-2h73l-1 9-3 14-8 16-8 10-8 8-15 10-19 7-15 2-15-1-13-4-11-6-9-8-7-11-4-11-1-6v-19l5-19 9-17 11-13 8-7 13-8 13-5z" fill="#040404"/>
<path transform="translate(1174,466)" d="m0 0h20l16 4 11 6 8 7 7 10 5 13 2 11v14l-3 16-5 13-9 14-9 10-12 9-12 6-16 4-7 1h-13l-15-3-14-7-10-9-7-11-4-10-2-12v-14l3-15 5-14 8-12 9-10 8-7 11-7 14-5zm0 25-13 4-9 6-9 9-7 14-3 13v13l3 12 6 8 9 6 6 2 13 1 14-3 9-5 10-9 7-11 4-12 1-6v-14l-2-9-6-10-9-6-10-3z" fill="#040404"/>
<path transform="translate(1265,468)" d="m0 0h29l2 10 15 90v5l3-3 18-35 10-19 14-27 10-19 1-2h29l-2 5-13 25-12 22-13 24-12 22-13 24-7 12-9 1h-18l-7-1-25-131z" fill="#050505"/>
<path transform="translate(1336,57)" d="m0 0h10l9 2 9 5 7 7 4 8 2 8-1 13-6 12-9 8-11 4h-18l-10-4-8-7-6-9-2-6v-14l4-10 6-8 9-6 5-2z" fill="#030303"/>
<path transform="translate(1413,468)" d="m0 0h27l-3 21-15 84-5 29-10 1h-9l-9-1 2-13 21-118z" fill="#050505"/>
</svg>
